{"title":"Runner Runner 2013 Cam XviD Feel-Free","uid":9168132,"size":1039030115,"categoryP":"video","categoryS":"movies","magnet":"?xt=urn:btih:f3865d6bdcf1126c87a2ae30ffddfe548ba14bb2&amp;dn=Runner+Runner+2013+Cam+XviD+Feel-Free&amp;tr=udp%3A%2F%2Ftracker.openbittorrent.com%3A80&amp;tr=udp%3A%2F%2Fopen.demonii.com%3A1337&amp;tr=udp%3A%2F%2Ftracker.coppersurfer.tk%3A6969&amp;tr=udp%3A%2F%2Fexodus.desync.com%3A6969","seeders":0,"leechers":1,"uploader":"SaM","files":7,"time":1384022887,"description":"Genre:Crime | Drama | Thriller\nLanguage:English\nIMDb:http://www.imdb.com/title/tt2364841/\nSource:VOBS Thanks\nSample:Never\nEncoder:Tony\n\nFormat : AVI\nFormat/Info : Audio Video Interleave\nFile size : 990 MiB\nDuration : 1h 25mn\nOverall bit rate : 1 621 Kbps\n\nVideo\nID : 0\nFormat : MPEG-4 Visual\nFormat profile : Advanced Simple@L5\nFormat settings, BVOP : 1\nFormat settings, QPel : No\nFormat settings, GMC : No warppoints\nFormat settings, Matrix : Default (H.263)\nCodec ID : XVID\nCodec ID/Hint : XviD\nDuration : 1h 25mn\nBit rate : 1 451 Kbps\nWidth : 640 pixels\nHeight : 320 pixels\nDisplay aspect ratio : 2.000\nFrame rate : 23.976 fps\nColor space : YUV\nChroma subsampling : 4:2:0\nBit depth : 8 bits\nScan type : Progressive\nCompression mode : Lossy\nBits/(Pixel*Frame) : 0.296\nStream size : 887 MiB (90%)\nWriting library : XviD 1.2.1 (UTC 2008-12-04)\n\nAudio\nID : 1\nFormat : AC-3\nFormat/Info : Audio Coding 3\nMode extension : CM (complete main)\nCodec ID : 2000\nDuration : 1h 25mn\nBit rate mode : Constant\nBit rate : 160 Kbps\nChannel(s) : 2 channels\nChannel positions : Front: L R\nSampling rate : 48.0 KHz\nBit depth : 16 bits\nCompression mode : Lossy\nStream size : 97.8 MiB (10%)\nAlignment : Aligned on interleaves\nInterleave, duration : 42 ms (1.00 video frame)\nInterleave, preload duration : 512 ms\n\n &lt;a href=&quot;\nhttp://img96.imageshack.us/img96/6923/d18l.png&quot; rel=&quot;nofollow&quot; target=&quot;_NEW&quot;&gt;\nhttp://img96.imageshack.us/img96/6923/d18l.png&lt;/a&gt;\n &lt;a href=&quot;\nhttp://img22.imageshack.us/img22/2940/8f9b.png&quot; rel=&quot;nofollow&quot; target=&quot;_NEW&quot;&gt;\nhttp://img22.imageshack.us/img22/2940/8f9b.png&lt;/a&gt;\n &lt;a href=&quot;\nhttp://img819.imageshack.us/img819/1866/ate6.png&quot; rel=&quot;nofollow&quot; target=&quot;_NEW&quot;&gt;\nhttp://img819.imageshack.us/img819/1866/ate6.png&lt;/a&gt;\n\n\nGreets:\nCRYS,INSPiRAL,IMAGINE,LKRG,ADTRG,FXG,3Li,FLAWL3SS,CrEwSaDe,TA,iLLUSiON,EMBER,HOPE,GooN,BBnRG,NOGRP,ETRG,BHRG,iLLUMiNATi,MiSTERE.ViSiON,DTRG SAFCuk009,LU,TheFalcon007,MYSTiC,PrisM,Noir,WBZ,LAP,Rx,Kingdom,SAFCuk009+Fabreezy,HDLiTE,TWiZTED,ETRG.ELEKTRI4KA,MAGNAT,CM8\nAnd to all the other p2p grps past and present","torrent":{"xt":"urn:btih:f3865d6bdcf1126c87a2ae30ffddfe548ba14bb2","amp;dn":"Runner+Runner+2013+Cam+XviD+Feel-Free","amp;tr":["udp%3A%2F%2Ftracker.openbittorrent.com%3A80","udp%3A%2F%2Fopen.demonii.com%3A1337","udp%3A%2F%2Ftracker.coppersurfer.tk%3A6969","udp%3A%2F%2Fexodus.desync.com%3A6969"],"infoHash":"f3865d6bdcf1126c87a2ae30ffddfe548ba14bb2","infoHashBuffer":{"type":"Buffer","data":[243,134,93,107,220,241,18,108,135,162,174,48,255,221,254,84,139,161,75,178]},"announce":[],"urlList":[]}}